<svg xmlns="http://www.w3.org/2000/svg" width="2000" height="1018" viewBox="0 0 1901 966" shape-rendering="geometricPrecision" image-rendering="optimizeQuality" fill-rule="evenodd" xmlns:v="https://vecta.io/nano"><path d="M96 898c8 0 15 2 19 6 5 4 7 10 7 17 0 8-2 14-7 18-4 4-11 6-19 6H81v20H68v-67h28zm-1 36c5 0 9-1 11-3 3-2 4-6 4-10s-1-7-4-9c-2-2-6-3-11-3H81v25h14zm97 31l-6-14h-33l-6 14h-14l30-67h13l29 67h-13zm-35-25h24l-12-28-12 28zm116 25l-12-20h-2-15v20h-13v-67h28c9 0 15 2 20 6s7 10 7 17c0 5-1 10-3 13-3 4-6 7-10 9l15 22h-15zm-29-31h15c5 0 8-1 11-3s4-6 4-10-1-7-4-9-6-3-11-3h-15v25zm65-36h55v11h-21v56h-13v-56h-21zm126-1c7 0 13 1 18 4 6 3 10 8 13 13s5 11 5 17a34.53 34.53 0 0 1-5 18c-3 5-7 9-13 12-5 4-11 5-18 5s-13-1-18-5c-6-3-10-7-13-12a34.53 34.53 0 0 1-5-18c0-6 2-12 5-17s7-10 13-13c5-3 11-4 18-4zm0 11c-4 0-8 1-11 3-4 2-7 5-9 9-2 3-3 7-3 11 0 5 1 8 3 12s5 6 9 8c3 2 7 3 11 3s8-1 11-3c4-2 7-4 9-8s3-7 3-12c0-4-1-8-3-11-2-4-5-7-9-9-3-2-7-3-11-3zm63-10h47v11h-34v18h31v11h-31v27h-13zm80 0h55v11h-21v56h-13v-56h-21zm123 67l-11-20h-3-15v20h-13v-67h28c9 0 16 2 21 6 4 4 7 10 7 17 0 5-1 10-4 13-2 4-5 7-10 9l15 22h-15zm-29-31h15c5 0 9-1 12-3 2-2 3-6 3-10s-1-7-3-9c-3-2-7-3-12-3h-15v25zm123 31l-6-14h-33l-6 14h-13l29-67h13l30 67h-14zm-34-25h23l-12-28-11 28zm55-42h14l20 53 20-53h13l-27 67h-13zm93 0h49v11h-36v17h32v11h-32v17h37v11h-50zm80 0h13v55h29v12h-42zm97 0c9 0 15 2 20 6 4 4 7 10 7 17 0 8-3 14-7 18-5 4-11 6-20 6h-15v20h-13v-67h28zm-1 36c5 0 9-1 12-3 2-2 4-6 4-10s-2-7-4-9c-3-2-7-3-12-3h-14v25h14zm97 31l-6-14h-33l-6 14h-13l29-67h14l29 67h-14zm-34-25h23l-11-28-12 28zm113-25c-3-2-7-4-11-5-3-1-6-2-9-2s-6 1-7 2c-2 1-3 3-3 5s1 3 2 5c1 1 3 2 4 3 2 1 5 1 8 2 5 2 9 3 11 4 3 2 6 4 8 6 2 3 3 6 3 11 0 4-1 7-3 11-3 3-6 5-9 6-4 2-9 3-14 3s-10-1-15-3-10-5-13-8l5-11c3 3 7 6 12 8 4 1 8 2 11 2 4 0 7 0 9-2 2-1 3-3 3-5s-1-4-2-5-3-2-5-3-4-2-8-3-8-3-11-4-5-3-7-6c-2-2-3-6-3-10s1-7 3-10 5-5 9-7 8-2 13-2c4 0 9 0 13 2 4 1 8 3 11 5l-5 11zm78 0c-4-2-7-4-11-5s-7-2-10-2-5 1-7 2-3 3-3 5 1 3 2 5c2 1 3 2 5 3s4 1 8 2c4 2 8 3 11 4 3 2 5 4 7 6 2 3 3 6 3 11 0 4-1 7-3 11-2 3-5 5-9 6-4 2-8 3-13 3-6 0-11-1-16-3s-9-5-13-8l6-11c3 3 7 6 11 8 4 1 8 2 12 2 3 0 6 0 8-2 2-1 3-3 3-5s0-4-1-5c-2-1-3-2-5-3s-5-2-8-3c-5-1-8-3-11-4s-6-3-8-6c-2-2-3-6-3-10s1-7 3-10 5-5 9-7 8-2 13-2 9 0 13 2c5 1 8 3 12 5l-5 11zm95 17h11v25c-4 3-8 5-13 7-4 1-9 2-14 2-6 0-12-1-18-5-5-3-9-7-13-12-3-5-4-11-4-18 0-6 1-12 5-17 3-5 7-9 13-13 5-3 11-4 18-4 5 0 10 1 14 2 5 2 9 5 12 8l-7 9c-2-2-5-4-9-6-3-1-7-2-10-2-4 0-8 1-12 3-3 2-6 5-8 9-2 3-3 7-3 11 0 5 1 8 3 12s5 6 8 8c4 2 8 3 12 3 2 0 5 0 7-1 3 0 5-1 8-3v-18zm84 33l-12-20h-2-15v20h-13v-67h28c9 0 16 2 20 6 5 4 7 10 7 17 0 5-1 10-3 13-2 4-6 7-10 9l15 22h-15zm-29-31h15c5 0 9-1 11-3 3-2 4-6 4-10s-1-7-4-9c-2-2-6-3-11-3h-15v25zm104-37c7 0 13 1 18 4 6 3 10 8 13 13 4 5 5 11 5 17 0 7-1 13-5 18-3 5-7 9-13 12-5 4-11 5-18 5-6 0-13-1-18-5-6-3-10-7-13-12a34.53 34.53 0 0 1-5-18c0-6 2-12 5-17s7-10 13-13c5-3 12-4 18-4zm0 11c-4 0-8 1-11 3-4 2-6 5-8 9-2 3-3 7-3 11 0 5 1 8 3 12s5 6 8 8 7 3 11 3 8-1 12-3c3-2 6-4 8-8s3-7 3-12c0-4-1-8-3-11-2-4-5-7-8-9-4-2-8-3-12-3zm76 29c0 6 2 10 5 13s7 4 12 4 9-1 12-4 4-7 4-13v-39h13v39c0 6-1 11-3 16-3 4-6 7-11 10-4 2-9 3-15 3s-11-1-16-3c-4-3-8-6-10-10-3-5-4-10-4-16v-39h13v39zm105-39c8 0 15 2 20 6 4 4 7 10 7 17 0 8-3 14-7 18-5 4-12 6-20 6h-15v20h-13v-67h28zm-1 36c5 0 9-1 12-3 2-2 3-6 3-10s-1-7-3-9c-3-2-7-3-12-3h-14v25h14zm47-36h32v8h-12v32h-9v-32h-11v-8zm37 0h10l12 24 12-24h10v40h-8v-27l-11 23h-6l-11-23v27h-8v-40z" fill="#444649" fill-rule="nonzero"/><g fill="#454545"><path d="M564 380c0 1 0 2-1 3v2c-1 0-1 1-1 1v-2c1 0 1-1 1-2 0 0 1-1 1-2h0zm-2 17h0v4h0v-3c-1-1-1-2 0-4v3zm176-161c-25 31-53 61-80 86l-12 12c-7-4-15-7-24-9-5-1-10-1-15-1h-11c1-9 3-18 4-27 5-47 11-96 14-145 16-19 35-37 60-58 17-12 37-25 60-33 13-5 37-13 58-9 7 2 13 6 16 12 10 17 0 49-3 58-6 19-17 36-29 55-8 15-18 30-28 44h0c-4 5-7 10-10 15zM627 351c-4 5-10 10-16 14-2 2-4 4-6 5-4 3-7 6-11 8-2 2-3 3-5 4 1-6 1-12 2-17 1-6 2-13 2-19 12-2 24 0 34 5zM612 53h0 0zm116 349c-14-15-33-32-57-50-2-2-4-3-6-5 24-22 51-46 72-74 30-34 56-73 81-117 17-31 23-60 18-85-9-44-56-42-76-40-35 5-72 23-114 56-11 9-20 18-29 27 0-9 0-19-1-28V66c1-3 1-7 0-10v-3-21l2-1v-1c-2-6-7-8-13-7a8.96 8.96 0 0 0-9 9c-2 43-4 81-7 112-7 9-15 18-21 28l-1 1h-1c-5 0-11 5-11 11 0 2 1 3 2 5 1 1 2 2 2 4l1 1 1 1s1 0 1 1c2 1 3 2 5 2 5 3 12 0 15-4l2-3c1-2 2-3 3-4-1 7-2 15-4 25-4 48-7 87-12 122-13 7-22 19-28 34-3 7-10 26-6 37s14 13 24 13c-18 130-26 231-26 329 0 11 0 20 2 31 0 4 2 7 6 9 3 2 5 2 8 2 2 0 5 0 6-2 3-1 4-4 3-7-4-129 12-257 26-370 4-1 7-4 10-6 1-1 3-2 4-3 14-8 27-19 39-31 3-2 6-5 10-8 1 1 3 2 3 4h1c40 30 74 65 101 105l14 23c2 5 5 10 8 15v2c0 1-1 2 0 3v4c0 1-1 2-1 3v3h0c0 3 2 7 3 9 3 4 8 5 11 4 6 0 10-2 13-6 6-11-6-33-9-39-15-30-34-57-65-90zm124-74c-11 14-28 34-46 44-1-28 6-54 13-72 5-16 16-46 34-62 5-4 10-5 13-5s5 0 6 1c3 5 7 12 9 19h0c4 21-5 46-29 75zm28-113c-8-4-18-5-26-1-17 6-31 22-43 48-19 38-28 75-28 109 0 28 8 66 47 79h3c6 0 10-4 11-7 1-5-1-10-8-12-19-7-25-25-29-42 10-3 18-8 26-14l4-2c11-10 24-21 33-35 12-13 39-49 33-88-3-15-12-28-23-35zm618-63h0 0 0zm41 22l64-6 73-7c6-1 8-4 8-6 2-3 1-6-1-9-3-3-9-5-14-4-49 3-101 8-142 12l-6 1c-6 0-12 1-19 1v-4-8c0-3 1-5 1-8 0-1-1-3-1-5 1-9 3-18 0-26v-2c0-7 0-9-2-13-3-5-6-6-9-6s-6 1-8 3c-4 2-5 5-4 7-1 0-1 1-1 1h0v17 46 1c-9 0-16 1-23 2-3 0-6 0-10 1h-1c-14 1-30 3-45 4-11 2-23 3-35 5-12 1-23 2-35 4-14 2-27 4-37 7-6 2-13 6-15 12 0 3 0 7 4 11 4 3 9 4 14 2h1c2-1 3-1 4-3h1 0 1 1l1-2c13-4 27-6 39-6 43-7 85-11 135-16-2 17-3 32-4 48l-2 23c-2 19-4 38-5 57l-9 118v1c-6 65-11 133-14 199-1 15-1 30-1 45 0 4 1 8 4 13 1 3 4 5 8 5h2c5 0 8-1 10-5 2-2 2-5 1-7 0-1-1-2-2-3l1-1-1-1c-1-3-1-4-1-5v-2c0-4 1-9 1-14 0-2 1-5 1-7v-6c0-6 1-12 1-17v-2l11-144c1-23 3-45 5-68l2-22 15-207c4-1 9-1 13-1 9-1 17-1 25-3zm19 27h0c-4 0-7 3-9 6v2c-1 0-1 1-1 1l-1 1h0l-2 1c-1 2-2 5-2 7 1 2 3 7 5 8h1c2 2 5 4 8 4h1 0 1l1-3c6-2 10-9 10-14 1-3 1-7-1-9-2-3-6-4-11-4zm-134 100h0-2c0 2-1 4-1 6-2 5-5 10-7 14-2 3-4 6-6 10-2 5-5 10-7 16-7 13-13 25-20 37-7 13-16 28-30 40v1c-2 2-3 3-4 3s-2-1-3-3c-2-5-2-11 0-16l1-1c1-37 17-68 30-89 1-1 2-3 3-5 6-9 19-29 30-31h1c2 0 4 0 5 1 3 3 6 4 10 3-1 5-2 10-2 14h2zm20 5c6-9 13-22 7-32-1-5-5-7-10-8-4 0-8 2-10 5-1 0-1 1-2 2h-1c-6-7-14-9-22-9-18 2-35 23-46 38v1s-1 0-1 1c-11 10-21 16-31 17-9 1-13-2-19-7-3-3-7-5-11-7-5-4-11-5-16-3-3 1-5 3-8 5l-2 2c-8 8-14 21-16 27-7 18-10 37-12 55-1 6-2 11-2 17-1 6-3 12-4 18s-3 12-3 18c-1 2-1 5-2 7-1 4-2 7-3 11-3-12-5-24-6-35-3-15-3-31-4-47 0-6-1-12-1-19v-2c-1-8-1-8-1-18v-12h0c-1-2-1-3-2-4-1-5-2-9-6-11-2-1-5-1-8 1-3 1-6 4-7 9h0c0 1 0 3-1 4v16c0 12 0 13 1 25 3 22 4 44 6 66v1c3 19 9 41 21 61l1 1c2 2 6 3 10 2 4 0 7-2 9-6 11-22 15-48 18-71l1-5c3-12 5-23 7-34 2-12 3-23 6-34 1-2 2-4 2-6 3-7 6-14 11-21 0 0 1-1 2-1s2 1 2 2c2 1 4 2 6 4 3 2 6 4 10 7 9 5 21 5 32 2-11 24-17 49-18 72-1 13 1 23 7 30 5 4 11 7 19 7 18 0 31-19 41-32 1-2 1-3 2-4 8-11 15-23 22-37-1 14-2 28-2 40-1 6-1 13-2 19-1 17-2 34-2 52 0 14 2 23 8 27 2 1 3 1 5 1s5 0 6-1c5-2 6-5 6-7 0-3 0-6-4-8v-29c0-18 2-39 5-61v-3c1-6 1-13 2-19 0-5 1-10 1-15 1-4 1-8 2-12 0-6 1-12 1-18 0-7 2-16 4-27v-1c2-2 2-4 2-6v-1zm-202-35c8 2 17-6 19-13 1-4-1-8-5-9-37-13-76 10-94 39-4 7-9 15-13 23l6-29c1-4 0-8-3-11s-8-4-11-3-5 3-6 7c-12 49-17 95-15 140-1 0-1 1-1 1h1v1h0 0-1 1c1 6 6 10 11 10v1c5 0 9-3 10-7h1v-3h0 0c5-43 11-69 27-100 22-43 56-52 73-47zM951 422l1-2c2-6 5-12 9-17 3 12 3 24 0 36-2 8-4 11-6 11-2 1-3 0-6-2-7-5-1-19 2-26zm104-88c-3 2-5 2-7 2 1-24 10-62 30-72 3-1 5-1 7 0 1 1 2 3 2 7 0 17-3 23-5 26h0c-7 17-21 32-27 37zm44-85c-6-4-15-7-23-6-11 2-23 12-33 28-11 15-17 40-17 57 0 5 1 11 2 16v1c-21 5-41 12-58 23-1-3-2-5-3-7-11-21-20-41-22-65-1-21 3-35 11-42 5-4 9-5 14-4s10 7 13 16c2 6 9 8 14 6 4-1 8-6 6-12-5-13-12-27-28-31-14-3-31 3-39 14-27 38-5 95 11 126l6 12c-5 5-9 10-13 16-7 11-18 32-14 49 2 13 14 26 28 26h3c9-2 16-7 21-15 10-18 6-50 0-70 14-9 30-15 46-19 3 0 5 0 8-1 2 4 4 6 6 8 1 2 2 3 3 4 7 8 18 15 35 20h3c6 0 9-4 10-7s0-9-8-12c-5-1-14-3-22-11-2-3-4-5-5-6-2-1-3-1-3-3 1-1 3-2 4-3 5-4 11-7 15-11 11-9 22-23 28-36 6-10 12-33 10-45-1-6-4-12-9-16zm568 136c-9-1-15-5-19-12-9-14-5-40 2-60 2-1 3-3 4-4 1-2 1-5 0-8v-1c5-15 17-37 28-37 3 0 7 10 9 13 3 7 3 14 3 22 3 26-1 55-12 87h-5c-4 0-7 1-10 0zm-25 34c-3-3-5-6-6-9-1-1-1-2-2-3-1-6-2-13-2-19 3 3 6 5 9 7 9 6 20 9 32 8l-3 6h0c-4 7-9 14-14 19-2 1-5 3-10-1 0-1-1-1-1-2 0-2-1-4-3-6zm216 119v-1h0v1zm21-3h0c-3-2-6-2-10 0-2 1-3 2-4 2h-1l-2-2c-4-4-5-10-7-16v-2c-5-24-5-47-5-71v-6c0-24 1-47 3-71v-10l1-6c2-18 4-39 0-58 0-4-3-8-7-11-5-3-11-3-17-1-9 5-15 15-20 24v1c-1 1-2 3-3 5-13 25-25 51-39 83v-1l1-1c1-10 2-21 4-31l3-17c1-5 2-10 4-15v-1c1-1 1-2 1-4 1-2 2-5 2-7v-1c0-5 2-9 3-12 3-1 5-3 7-5 1-2 1-4 0-7-3-7-7-8-10-8-6-1-12 4-15 10-4 9-7 21-9 33l-2 2c-14 15-27 29-43 40h-1c-3 2-5 3-7 4 1-4 2-8 3-11v-3c8-30 16-74-6-104-4-7-10-11-18-12s-17 2-25 9c-10 8-17 21-24 34l-2 5c-1 0-2 0-3 1-7 4-11 12-14 20h-1c0 1 0 2-1 2-11 17-19 35-28 57-1 3-3 7-4 11l-12 27c-8 17-18 34-25 36v-2l-2 1h-1c-1 0-2-1-3-5-2-9-2-18-2-27 0-3 1-6 1-9 0-18 1-35 5-52 1-7 2-13 2-19 3-20 6-40 12-58 2-3 1-6-1-9s-7-5-11-4c-5 0-8 3-10 7-9 23-13 50-17 76l-1 10c-4 28-8 57-1 86 2 8 5 14 10 19s11 7 18 7c3 0 6 0 8-1 16-4 24-20 30-33l1-1c7-14 12-28 18-42a369.08 369.08 0 0 1 13-29c-2 17-3 36 3 51-1 1-1 2-1 2v1 1c6 13 14 23 23 28 8 4 16 5 23 2 15-6 22-20 27-32 4-5 7-10 8-17 18-6 32-13 42-22 4-4 8-7 11-10-8 36-10 66-9 92 0 5 3 8 7 9 5 2 11-1 14-6l27-59c8-19 17-39 26-59 2-3 3-6 5-9h0c2-3 3-7 4-10 2-4 4-8 7-12v16 9 5c0 3 0 6-1 9v10c-1 21-3 44-3 66 0 26 0 53 4 82l1 1c2 15 6 38 24 44 3 1 6 2 9 2 5 0 9-1 14-4 3-1 4-4 5-7 0-4-2-8-6-10z" fill-rule="nonzero"/><path d="M883 581c-8-2-19-3-31-3h-14v6 3l1 10v9c0 4 0 7-1 9v24 14h11c18 0 33-3 45-8 13-5 20-14 20-26 0-4-1-8-2-13-4-12-14-21-29-25zm-60 78c-1-6-1-12-1-19v-3-11l1-11v-8-3-10c-1-4-1-7-1-10 0-5 1-9 1-12 0-2 1-4 3-5 1-1 3-1 5-1 7-1 13-1 19-1 16 0 31 2 43 6 21 7 33 19 35 38 0 2 1 5 1 7 0 19-10 32-29 41-13 6-30 9-50 9-6 0-13 0-19-1-3 0-5-1-6-3-1-1-2-2-2-3zm164-94h25 24c3 0 5 1 6 2 2 2 2 3 2 5s0 3-2 5c-1 1-3 2-6 2h-22-8-14-6-5l-1 14v8 14h1 13 14c12 0 21-1 27-1h0c3 0 5 1 6 2 1 2 2 3 2 5s-1 3-2 5c-1 1-3 2-6 2h-27-14l-13 1v2c0 8-1 15-1 21h15 15c13 0 23 0 31-1h0c3 0 4 1 6 2 1 2 2 3 2 5s-1 3-2 5c-2 1-4 2-6 2h-35-18-17-1c-2 0-4-1-6-2-1-2-2-3-2-5l1-1c0-5 1-10 1-17v-6-5l-1-6v-7-4-2-8-5-6c-1-1-1-2-1-3 0-7 1-13 3-17 1-3 4-5 9-5 2-1 5-1 7-1h4 2zm139 102c-9-1-17-2-24-5-5-2-9-4-13-7l-4-4c-2-1-2-2-3-3-1-2-2-2-2-3v-1l-1-1v-2h0c0-3 2-5 6-6h2 4c2 1 3 3 4 5s2 4 5 5c4 4 11 7 21 8h10c8 0 15-1 21-4l2-2c1 0 1-1 1-2 1-1 1-2 2-3v-2c0-2 0-3-1-5s-2-3-4-5c-3-2-6-4-11-6-3-2-8-3-13-5-7-1-13-3-18-4-9-3-15-7-19-10-5-5-7-10-7-16 0-7 4-13 12-18s19-7 33-7c13 0 24 3 33 9 4 3 8 6 10 9 0 1 1 2 1 3s-1 2-1 2c-1 2-2 3-4 4h-4-2c-2 0-4-1-6-3-4-5-11-8-21-10-3-1-7-1-10-1-5 0-10 1-14 3s-7 5-8 8v2c0 3 1 5 4 8h0 1v1c1 1 2 1 3 2l2 1h1c4 1 8 3 15 4l8 3c3 0 6 1 8 2 7 2 12 4 16 6 3 2 6 4 8 6 2 3 4 5 5 8 0 2 1 3 1 5v3 1h0v3c-1 1-1 2-1 3l-1 1h0a25.03 25.03 0 0 1-12 13c-5 3-12 5-19 6-4 0-8 1-13 1h-1-1-1zm107-8c0 2 0 3-2 4s-4 2-6 2-4-1-5-2c-2-1-3-2-3-4v-89c0-2 1-3 3-4 1-2 3-2 5-2s4 0 6 2c2 1 2 2 2 4v44c3-1 6-2 10-4l5-2 5-2c9-3 15-6 20-8 14-8 21-17 22-28 0-2 1-3 2-4 2-2 4-2 6-2s4 0 5 2c2 1 3 2 3 4 0 16-10 28-30 38 10 5 19 12 24 22 6 9 9 18 9 29h0c0 2-1 4-2 5-2 1-4 1-6 1s-4 0-6-1c-1-1-2-3-2-5-1-10-4-19-9-27-7-8-16-13-27-15l-7 3-8 3c-5 2-10 4-14 5v31zM396 291c-17 49-56 88-105 105-13 4-25 11-35 20 10-38 30-73 58-102 29-28 64-48 102-58-9 10-16 22-20 35zM188 396c-49-17-88-56-104-105-4-13-12-25-21-35 79 20 141 82 160 160-10-9-22-16-35-20zM84 188c16-49 55-88 104-104 13-4 25-12 35-21-9 39-29 74-58 102-28 29-63 49-102 58 9-10 17-22 21-35zm156 213c-23-77-84-138-161-161 77-23 138-84 161-161 11 37 31 72 60 101 29 28 63 49 101 60-77 23-138 84-161 161zm51-317c49 16 88 55 105 104 4 13 11 25 20 35-78-20-140-81-160-160 10 10 22 17 35 21zm179 146h-2c-7 0-14-1-21-1-14-9-25-23-33-47-18-55-61-99-116-117-24-8-39-18-47-33-1-7-1-14-1-22 0-6-5-10-10-10-6 0-10 4-10 10 0 7-1 15-1 22-8 15-23 25-47 33-55 18-99 62-117 117-8 24-18 39-33 47-7 0-15 1-22 1-6 0-10 4-10 10 0 5 4 10 10 10h1c7 0 14 0 21 1 15 8 25 23 33 47 18 55 62 98 117 116 24 8 39 19 47 34 0 7 1 14 1 22 0 5 4 10 10 10 5 0 10-5 10-10 0-8 0-15 1-23 8-14 23-25 47-33 55-18 98-61 116-116 8-24 19-39 33-47 8-1 15-1 23-1h0c5 0 10-5 10-10 0-6-5-10-10-10z" fill-rule="nonzero"/></g></svg>